<svg width="301" height="301" viewBox="0 0 301 301" fill="none" xmlns="http://www.w3.org/2000/svg">
<path d="M135.674 69.6523L165.172 69.6531L165.172 148.437L135.674 148.437L135.674 69.6523Z" fill="black"/>
<path d="M180.172 92.9238C205.049 104.241 222.347 129.313 222.347 158.426L222.34 159.355C221.842 198.649 189.834 230.349 150.423 230.35L149.493 230.343C110.509 229.849 78.9991 198.34 78.5049 159.355L78.499 158.426C78.499 129.313 95.7963 104.241 120.674 92.9238L120.674 130.325C113.747 137.656 109.499 147.544 109.499 158.426C109.499 181.027 127.822 199.35 150.423 199.35C173.024 199.349 191.346 181.027 191.347 158.426C191.347 147.545 187.099 137.656 180.172 130.325L180.172 92.9238Z" fill="black"/>
<path d="M151.353 86.5078C156.083 86.5678 160.704 87.0844 165.172 88.0156L165.172 120.241C160.596 118.472 155.623 117.502 150.423 117.502C145.223 117.502 140.25 118.472 135.674 120.241L135.674 88.0156C140.434 87.0234 145.368 86.501 150.423 86.501L151.353 86.5078Z" fill="black"/>
</svg>
