<svg width="301" height="301" viewBox="0 0 301 301" fill="none" xmlns="http://www.w3.org/2000/svg">
<path d="M66.0979 185.534L129.057 149.184V221.883L66.0979 185.534Z" fill="black"/>
<path d="M151.471 78.7886C191.076 78.7886 223.183 110.896 223.183 150.5L223.177 151.427C222.681 190.605 190.767 222.211 151.472 222.211V191.211C173.956 191.211 192.182 172.984 192.183 150.5C192.183 128.016 173.955 109.79 151.471 109.79C128.987 109.79 110.76 128.017 110.76 150.5C110.76 164.702 118.034 177.202 129.057 184.487V218.637C100.43 209.225 79.7601 182.277 79.7599 150.5C79.7601 110.896 111.866 78.789 151.471 78.7886Z" fill="black"/>
</svg>
