<svg width="301" height="301" viewBox="0 0 301 301" fill="none" xmlns="http://www.w3.org/2000/svg">
<path d="M134.362 174.206V163.72C134.362 159.725 135.075 156.23 136.502 153.234C138.071 150.095 139.997 147.313 142.28 144.888C144.705 142.32 147.273 139.966 149.984 137.826C152.695 135.543 155.191 133.332 157.474 131.192C159.757 128.909 161.683 126.484 163.252 123.916C164.821 121.205 165.606 118.281 165.606 115.142C165.606 113.287 165.321 111.433 164.75 109.578C164.322 107.723 163.466 105.94 162.182 104.228C160.898 102.516 159.115 101.161 156.832 100.162C154.692 99.0207 151.839 98.45 148.272 98.45C144.135 98.45 140.782 99.092 138.214 100.376C135.789 101.66 133.934 103.301 132.65 105.298C131.366 107.295 130.439 109.435 129.868 111.718C129.44 114.001 129.226 116.212 129.226 118.352C129.226 119.351 129.226 120.349 129.226 121.348C129.226 122.204 129.297 123.131 129.44 124.13H95.842C95.6993 123.131 95.5567 121.99 95.414 120.706C95.2713 119.422 95.2 117.995 95.2 116.426C95.2 111.147 95.9847 106.225 97.554 101.66C99.266 97.0947 101.691 93.0287 104.83 89.462C107.969 85.7527 111.821 82.614 116.386 80.046C121.094 77.478 126.301 75.4807 132.008 74.054C137.857 72.6273 144.206 71.914 151.054 71.914C157.331 71.914 163.109 72.556 168.388 73.84C173.809 74.9813 178.66 76.6933 182.94 78.976C187.22 81.2587 190.787 84.112 193.64 87.536C196.636 90.8173 198.919 94.598 200.488 98.878C202.2 103.158 203.056 107.866 203.056 113.002C203.056 118.709 202.129 123.631 200.274 127.768C198.562 131.905 196.208 135.543 193.212 138.682C190.359 141.678 187.363 144.389 184.224 146.814C181.085 149.239 178.089 151.593 175.236 153.876C172.383 156.016 170.029 158.299 168.174 160.724C166.319 163.007 165.392 165.646 165.392 168.642V174.206H134.362ZM132.436 221.5V187.474H167.746V221.5H132.436Z" fill="black"/>
</svg>
